<svg xmlns="http://www.w3.org/2000/svg" xmlns:xlink="http://www.w3.org/1999/xlink" width="300" zoomAndPan="magnify" viewBox="0 0 224.87999 74.999997" height="100" preserveAspectRatio="xMidYMid meet" version="1.0"><defs><g/><clipPath id="c4e6724715"><path d="M 7 0.0195312 L 224.761719 0.0195312 L 224.761719 74.980469 L 7 74.980469 Z M 7 0.0195312 " clip-rule="nonzero"/></clipPath><clipPath id="7d4b6004a3"><rect x="0" width="218" y="0" height="75"/></clipPath></defs><g clip-path="url(#c4e6724715)"><g transform="matrix(1, 0, 0, 1, 7, -0.000000000000000847)"><g clip-path="url(#7d4b6004a3)"><g fill="#ffffff" fill-opacity="1"><g transform="translate(2.394211, 68.555142)"><g><path d="M 22.421875 -24.125 L 22.421875 -33.78125 L 39.796875 -33.78125 L 39.796875 -11.453125 C 39.796875 -3.191406 35.914062 0.9375 28.15625 0.9375 L 16.328125 0.9375 C 8.566406 0.9375 4.6875 -3.191406 4.6875 -11.453125 L 4.6875 -49.265625 C 4.6875 -57.523438 8.566406 -61.65625 16.328125 -61.65625 L 28.15625 -61.65625 C 35.914062 -61.65625 39.796875 -57.523438 39.796875 -49.265625 L 39.796875 -43.546875 L 27.3125 -43.546875 L 27.3125 -50.859375 C 27.3125 -51.359375 27.140625 -51.796875 26.796875 -52.171875 C 26.453125 -52.546875 26.03125 -52.734375 25.53125 -52.734375 L 19.609375 -52.734375 C 19.109375 -52.734375 18.6875 -52.546875 18.34375 -52.171875 C 18 -51.796875 17.828125 -51.359375 17.828125 -50.859375 L 17.828125 -9.953125 C 17.828125 -9.453125 18 -9.015625 18.34375 -8.640625 C 18.6875 -8.265625 19.109375 -8.078125 19.609375 -8.078125 L 25.53125 -8.078125 C 26.03125 -8.078125 26.453125 -8.265625 26.796875 -8.640625 C 27.140625 -9.015625 27.3125 -9.453125 27.3125 -9.953125 L 27.3125 -24.125 Z M 22.421875 -24.125 "/></g></g></g><g fill="#ffffff" fill-opacity="1"><g transform="translate(57.857709, 68.555142)"><g><path d="M 17.828125 -24.875 L 17.828125 0 L 4.6875 0 L 4.6875 -60.71875 L 28.0625 -60.71875 C 35.820312 -60.71875 39.703125 -56.585938 39.703125 -48.328125 L 39.703125 -41.296875 C 39.703125 -36.285156 37.914062 -33.09375 34.34375 -31.71875 C 37.46875 -30.59375 39.03125 -28.03125 39.03125 -24.03125 L 39.03125 0 L 25.90625 0 L 25.90625 -22.984375 C 25.90625 -24.242188 25.3125 -24.875 24.125 -24.875 Z M 17.828125 -51.796875 L 17.828125 -34.0625 L 24.78125 -34.0625 C 25.28125 -34.0625 25.703125 -34.25 26.046875 -34.625 C 26.390625 -35 26.5625 -35.4375 26.5625 -35.9375 L 26.5625 -49.921875 C 26.5625 -50.421875 26.390625 -50.859375 26.046875 -51.234375 C 25.703125 -51.609375 25.28125 -51.796875 24.78125 -51.796875 Z M 17.828125 -51.796875 "/></g></g></g><g fill="#ffffff" fill-opacity="1"><g transform="translate(114.447346, 68.555142)"><g><path d="M 28.8125 -61.65625 C 36.570312 -61.65625 40.453125 -57.523438 40.453125 -49.265625 L 40.453125 0 L 27.3125 0 L 27.3125 -20.359375 L 17.828125 -20.359375 L 17.828125 0 L 4.6875 0 L 4.6875 -49.265625 C 4.6875 -57.523438 8.566406 -61.65625 16.328125 -61.65625 Z M 17.828125 -30.5 L 27.3125 -30.5 L 27.3125 -50.859375 C 27.3125 -51.359375 27.140625 -51.796875 26.796875 -52.171875 C 26.453125 -52.546875 26.03125 -52.734375 25.53125 -52.734375 L 19.609375 -52.734375 C 19.109375 -52.734375 18.6875 -52.546875 18.34375 -52.171875 C 18 -51.796875 17.828125 -51.359375 17.828125 -50.859375 Z M 17.828125 -30.5 "/></g></g></g><g fill="#ffffff" fill-opacity="1"><g transform="translate(173.101584, 68.555142)"><g><path d="M 1.21875 -49.546875 L 1.21875 -60.71875 L 34.0625 -60.71875 L 34.0625 -49.546875 L 24.21875 -49.546875 L 24.21875 0 L 11.078125 0 L 11.078125 -49.546875 Z M 1.21875 -49.546875 "/></g></g></g></g></g></g></svg>