<svg xmlns="http://www.w3.org/2000/svg" xmlns:xlink="http://www.w3.org/1999/xlink" width="500" zoomAndPan="magnify" viewBox="0 0 375 374.999991" height="500" preserveAspectRatio="xMidYMid meet" version="1.0"><defs><g/><clipPath id="18c6d3c5c5"><rect x="0" width="145" y="0" height="66"/></clipPath></defs><g transform="matrix(1, 0, 0, 1, 119, 293)"><g clip-path="url(#18c6d3c5c5)"><g fill="#ffffff" fill-opacity="1"><g transform="translate(1.011561, 53.525691)"><g><path d="M 14.6875 -15.796875 L 14.6875 -22.125 L 26.0625 -22.125 L 26.0625 -7.5 C 26.0625 -2.09375 23.519531 0.609375 18.4375 0.609375 L 10.6875 0.609375 C 5.613281 0.609375 3.078125 -2.09375 3.078125 -7.5 L 3.078125 -32.265625 C 3.078125 -37.671875 5.613281 -40.375 10.6875 -40.375 L 18.4375 -40.375 C 23.519531 -40.375 26.0625 -37.671875 26.0625 -32.265625 L 26.0625 -28.515625 L 17.890625 -28.515625 L 17.890625 -33.3125 C 17.890625 -33.632812 17.773438 -33.914062 17.546875 -34.15625 C 17.316406 -34.40625 17.039062 -34.53125 16.71875 -34.53125 L 12.84375 -34.53125 C 12.519531 -34.53125 12.242188 -34.40625 12.015625 -34.15625 C 11.785156 -33.914062 11.671875 -33.632812 11.671875 -33.3125 L 11.671875 -6.515625 C 11.671875 -6.179688 11.785156 -5.890625 12.015625 -5.640625 C 12.242188 -5.398438 12.519531 -5.28125 12.84375 -5.28125 L 16.71875 -5.28125 C 17.039062 -5.28125 17.316406 -5.398438 17.546875 -5.640625 C 17.773438 -5.890625 17.890625 -6.179688 17.890625 -6.515625 L 17.890625 -15.796875 Z M 14.6875 -15.796875 "/></g></g></g><g fill="#ffffff" fill-opacity="1"><g transform="translate(37.333481, 53.525691)"><g><path d="M 11.671875 -16.28125 L 11.671875 0 L 3.078125 0 L 3.078125 -39.765625 L 18.375 -39.765625 C 23.457031 -39.765625 26 -37.054688 26 -31.640625 L 26 -27.046875 C 26 -23.765625 24.828125 -21.671875 22.484375 -20.765625 C 24.535156 -20.035156 25.5625 -18.359375 25.5625 -15.734375 L 25.5625 0 L 16.96875 0 L 16.96875 -15.0625 C 16.96875 -15.875 16.578125 -16.28125 15.796875 -16.28125 Z M 11.671875 -33.921875 L 11.671875 -22.3125 L 16.21875 -22.3125 C 16.550781 -22.3125 16.828125 -22.429688 17.046875 -22.671875 C 17.273438 -22.921875 17.390625 -23.207031 17.390625 -23.53125 L 17.390625 -32.6875 C 17.390625 -33.019531 17.273438 -33.304688 17.046875 -33.546875 C 16.828125 -33.796875 16.550781 -33.921875 16.21875 -33.921875 Z M 11.671875 -33.921875 "/></g></g></g><g fill="#ffffff" fill-opacity="1"><g transform="translate(74.392886, 53.525691)"><g><path d="M 18.859375 -40.375 C 23.941406 -40.375 26.484375 -37.671875 26.484375 -32.265625 L 26.484375 0 L 17.890625 0 L 17.890625 -13.328125 L 11.671875 -13.328125 L 11.671875 0 L 3.078125 0 L 3.078125 -32.265625 C 3.078125 -37.671875 5.613281 -40.375 10.6875 -40.375 Z M 11.671875 -19.96875 L 17.890625 -19.96875 L 17.890625 -33.3125 C 17.890625 -33.632812 17.773438 -33.914062 17.546875 -34.15625 C 17.316406 -34.40625 17.039062 -34.53125 16.71875 -34.53125 L 12.84375 -34.53125 C 12.519531 -34.53125 12.242188 -34.40625 12.015625 -34.15625 C 11.785156 -33.914062 11.671875 -33.632812 11.671875 -33.3125 Z M 11.671875 -19.96875 "/></g></g></g><g fill="#ffffff" fill-opacity="1"><g transform="translate(112.804357, 53.525691)"><g><path d="M 0.796875 -32.453125 L 0.796875 -39.765625 L 22.3125 -39.765625 L 22.3125 -32.453125 L 15.859375 -32.453125 L 15.859375 0 L 7.25 0 L 7.25 -32.453125 Z M 0.796875 -32.453125 "/></g></g></g></g></g><path fill="#7ed957" d="M 349.167969 129.761719 L 349.167969 98.300781 C 349.167969 85.203125 338.453125 74.488281 325.359375 74.488281 L 111.90625 74.488281 L 264.691406 57.816406 L 264.691406 30.09375 C 264.691406 24.632812 262.328125 19.9375 257.949219 16.679688 C 253.566406 13.421875 248.390625 12.511719 243.15625 14.089844 L 54.355469 70.90625 C 47.179688 73.0625 42.457031 79.414062 42.457031 86.910156 L 42.457031 140.804688 L 106.605469 140.804688 C 117.601562 140.804688 126.589844 149.796875 126.589844 160.785156 C 126.589844 171.78125 117.59375 180.769531 106.605469 180.769531 L 19.984375 180.769531 C 8.992188 180.777344 0 189.769531 0 200.757812 C 0 211.746094 8.992188 220.742188 19.984375 220.742188 L 163.070312 220.742188 C 174.066406 220.742188 183.050781 229.734375 183.050781 240.726562 C 183.050781 251.714844 174.058594 260.707031 163.070312 260.707031 L 104.867188 260.707031 C 93.871094 260.707031 84.882812 269.703125 84.882812 280.691406 C 84.882812 291.6875 93.878906 300.671875 104.867188 300.671875 L 325.351562 300.671875 C 338.449219 300.671875 349.164062 289.960938 349.164062 276.863281 L 349.164062 245.402344 L 304.996094 245.402344 C 301.097656 245.402344 297.914062 242.214844 297.914062 238.316406 C 297.914062 234.417969 301.097656 231.234375 304.996094 231.234375 L 361.503906 231.234375 C 368.941406 231.234375 375.011719 225.164062 375.011719 217.726562 L 375.011719 157.4375 C 375.011719 150 368.949219 143.929688 361.503906 143.929688 L 280.515625 143.929688 C 276.617188 143.929688 273.421875 140.746094 273.421875 136.847656 C 273.421875 132.949219 276.609375 129.753906 280.515625 129.753906 L 349.167969 129.753906 Z M 278.355469 175.191406 C 271.507812 175.191406 265.953125 180.742188 265.953125 187.589844 C 265.953125 194.441406 271.507812 199.992188 278.355469 199.992188 C 285.203125 199.992188 290.757812 194.441406 290.757812 187.589844 C 290.757812 180.738281 285.203125 175.191406 278.355469 175.191406 Z M 248.875 187.585938 C 248.875 171.371094 262.140625 158.105469 278.355469 158.105469 L 360.84375 158.105469 L 360.84375 217.066406 L 278.355469 217.066406 C 262.148438 217.066406 248.875 203.800781 248.875 187.585938 Z M 248.875 187.585938 " fill-opacity="1" fill-rule="evenodd"/></svg>