<svg xmlns="http://www.w3.org/2000/svg" xmlns:xlink="http://www.w3.org/1999/xlink" width="400" zoomAndPan="magnify" viewBox="0 0 300 74.999997" height="100" preserveAspectRatio="xMidYMid meet" version="1.0"><defs><g/><clipPath id="ca58f01f0c"><path d="M 0 0 L 97.5 0 L 97.5 75 L 0 75 Z M 0 0 " clip-rule="nonzero"/></clipPath><clipPath id="e38fd4be8c"><rect x="0" width="190" y="0" height="75"/></clipPath></defs><g clip-path="url(#ca58f01f0c)"><path fill="#7ed957" d="M 90.730469 30.539062 L 90.730469 22.363281 C 90.730469 18.960938 87.945312 16.175781 84.542969 16.175781 L 29.078125 16.175781 L 68.777344 11.84375 L 68.777344 4.640625 C 68.777344 3.222656 68.164062 2 67.027344 1.15625 C 65.886719 0.308594 64.542969 0.0703125 63.183594 0.480469 L 14.125 15.246094 C 12.257812 15.804688 11.03125 17.457031 11.03125 19.402344 L 11.03125 33.40625 L 27.699219 33.40625 C 30.558594 33.40625 32.894531 35.746094 32.894531 38.601562 C 32.894531 41.457031 30.554688 43.792969 27.699219 43.792969 L 5.191406 43.792969 C 2.335938 43.792969 0 46.132812 0 48.984375 C 0 51.839844 2.335938 54.179688 5.191406 54.179688 L 42.371094 54.179688 C 45.230469 54.179688 47.566406 56.515625 47.566406 59.371094 C 47.566406 62.226562 45.226562 64.5625 42.371094 64.5625 L 27.25 64.5625 C 24.390625 64.5625 22.054688 66.902344 22.054688 69.757812 C 22.054688 72.613281 24.394531 74.949219 27.25 74.949219 L 84.539062 74.949219 C 87.945312 74.949219 90.726562 72.164062 90.726562 68.761719 L 90.726562 60.585938 L 79.25 60.585938 C 78.238281 60.585938 77.410156 59.757812 77.410156 58.746094 C 77.410156 57.734375 78.238281 56.90625 79.25 56.90625 L 93.933594 56.90625 C 95.867188 56.90625 97.445312 55.328125 97.445312 53.394531 L 97.445312 37.730469 C 97.445312 35.796875 95.871094 34.21875 93.933594 34.21875 L 72.890625 34.21875 C 71.875 34.21875 71.046875 33.390625 71.046875 32.378906 C 71.046875 31.367188 71.875 30.535156 72.890625 30.535156 L 90.730469 30.535156 Z M 72.328125 42.34375 C 70.550781 42.34375 69.105469 43.785156 69.105469 45.566406 C 69.105469 47.34375 70.550781 48.789062 72.328125 48.789062 C 74.109375 48.789062 75.550781 47.34375 75.550781 45.566406 C 75.550781 43.785156 74.109375 42.34375 72.328125 42.34375 Z M 64.667969 45.5625 C 64.667969 41.351562 68.117188 37.902344 72.328125 37.902344 L 93.761719 37.902344 L 93.761719 53.222656 L 72.328125 53.222656 C 68.117188 53.222656 64.667969 49.777344 64.667969 45.5625 Z M 64.667969 45.5625 " fill-opacity="1" fill-rule="evenodd"/></g><g transform="matrix(1, 0, 0, 1, 107, -0.000000000000001893)"><g clip-path="url(#e38fd4be8c)"><g fill="#ffffff" fill-opacity="1"><g transform="translate(1.511412, 64.06737)"><g><path d="M 19.1875 -20.625 L 19.1875 -28.90625 L 34.046875 -28.90625 L 34.046875 -9.796875 C 34.046875 -2.734375 30.722656 0.796875 24.078125 0.796875 L 13.96875 0.796875 C 7.332031 0.796875 4.015625 -2.734375 4.015625 -9.796875 L 4.015625 -42.140625 C 4.015625 -49.210938 7.332031 -52.75 13.96875 -52.75 L 24.078125 -52.75 C 30.722656 -52.75 34.046875 -49.210938 34.046875 -42.140625 L 34.046875 -37.25 L 23.359375 -37.25 L 23.359375 -43.515625 C 23.359375 -43.941406 23.210938 -44.316406 22.921875 -44.640625 C 22.628906 -44.960938 22.269531 -45.125 21.84375 -45.125 L 16.78125 -45.125 C 16.351562 -45.125 15.988281 -44.960938 15.6875 -44.640625 C 15.394531 -44.316406 15.25 -43.941406 15.25 -43.515625 L 15.25 -8.515625 C 15.25 -8.085938 15.394531 -7.710938 15.6875 -7.390625 C 15.988281 -7.066406 16.351562 -6.90625 16.78125 -6.90625 L 21.84375 -6.90625 C 22.269531 -6.90625 22.628906 -7.066406 22.921875 -7.390625 C 23.210938 -7.710938 23.359375 -8.085938 23.359375 -8.515625 L 23.359375 -20.625 Z M 19.1875 -20.625 "/></g></g></g><g fill="#ffffff" fill-opacity="1"><g transform="translate(48.959892, 64.06737)"><g><path d="M 15.25 -21.28125 L 15.25 0 L 4.015625 0 L 4.015625 -51.9375 L 24 -51.9375 C 30.632812 -51.9375 33.953125 -48.40625 33.953125 -41.34375 L 33.953125 -35.328125 C 33.953125 -31.046875 32.429688 -28.316406 29.390625 -27.140625 C 32.054688 -26.171875 33.390625 -23.972656 33.390625 -20.546875 L 33.390625 0 L 22.15625 0 L 22.15625 -19.671875 C 22.15625 -20.742188 21.644531 -21.28125 20.625 -21.28125 Z M 15.25 -44.3125 L 15.25 -29.140625 L 21.1875 -29.140625 C 21.625 -29.140625 21.988281 -29.300781 22.28125 -29.625 C 22.570312 -29.945312 22.71875 -30.320312 22.71875 -30.75 L 22.71875 -42.703125 C 22.71875 -43.140625 22.570312 -43.515625 22.28125 -43.828125 C 21.988281 -44.148438 21.625 -44.3125 21.1875 -44.3125 Z M 15.25 -44.3125 "/></g></g></g><g fill="#ffffff" fill-opacity="1"><g transform="translate(97.371773, 64.06737)"><g><path d="M 24.640625 -52.75 C 31.273438 -52.75 34.59375 -49.210938 34.59375 -42.140625 L 34.59375 0 L 23.359375 0 L 23.359375 -17.421875 L 15.25 -17.421875 L 15.25 0 L 4.015625 0 L 4.015625 -42.140625 C 4.015625 -49.210938 7.332031 -52.75 13.96875 -52.75 Z M 15.25 -26.09375 L 23.359375 -26.09375 L 23.359375 -43.515625 C 23.359375 -43.941406 23.210938 -44.316406 22.921875 -44.640625 C 22.628906 -44.960938 22.269531 -45.125 21.84375 -45.125 L 16.78125 -45.125 C 16.351562 -45.125 15.988281 -44.960938 15.6875 -44.640625 C 15.394531 -44.316406 15.25 -43.941406 15.25 -43.515625 Z M 15.25 -26.09375 "/></g></g></g><g fill="#ffffff" fill-opacity="1"><g transform="translate(147.5499, 64.06737)"><g><path d="M 1.046875 -42.390625 L 1.046875 -51.9375 L 29.140625 -51.9375 L 29.140625 -42.390625 L 20.71875 -42.390625 L 20.71875 0 L 9.46875 0 L 9.46875 -42.390625 Z M 1.046875 -42.390625 "/></g></g></g></g></g></svg>